
<svg xmlns="http://www.w3.org/2000/svg" viewBox="0 0 170.04 19.97"><defs><style>.cls-1{fill:#ffc000;}.cls-2{fill:#1b2034;}</style></defs><title>img__beard--admiralРесурс 5</title><g id="Слой_2" data-name="Слой 2"><g id="Слой_1-2" data-name="Слой 1"><path class="cls-1" d="M9.85,19.79a9.87,9.87,0,1,1,6.6-17.21,1.54,1.54,0,0,1,.1,2.21,1.56,1.56,0,0,1-2.18.1A6.74,6.74,0,1,0,9.85,16.64a6.69,6.69,0,0,0,4.6-1.79,1.56,1.56,0,0,1,2.21.08,1.59,1.59,0,0,1-.08,2.21A10,10,0,0,1,9.85,19.79Z"/><path class="cls-1" d="M32.11,19.27a1.49,1.49,0,0,1-1.17.52,1.62,1.62,0,0,1-1-.39l-7.41-7a.35.35,0,0,1-.1.08v5.75a1.55,1.55,0,0,1-3.09,0V1.61a1.55,1.55,0,1,1,3.09,0V8.06L29.2.94A1.53,1.53,0,0,1,31.38.88a1.56,1.56,0,0,1,.05,2.21l-6.81,7.1L32,17.08A1.53,1.53,0,0,1,32.11,19.27Z"/><path class="cls-1" d="M44.33,19.76a9.87,9.87,0,1,1,9.85-9.85A9.88,9.88,0,0,1,44.33,19.76Zm0-16.59A6.72,6.72,0,1,0,51,9.88,6.73,6.73,0,0,0,44.33,3.17Z"/><path class="cls-1" d="M69.63,6a5.9,5.9,0,0,1-5.93,5.69H59.59V18.2a1.53,1.53,0,0,1-3.07,0V1.69A1.56,1.56,0,0,1,58,.16V0h5.93A5.93,5.93,0,0,1,69.63,6ZM66.53,6a2.87,2.87,0,0,0-2.63-2.89H59.59V8.58H63.7A2.8,2.8,0,0,0,66.53,6Z"/><path class="cls-1" d="M81.33,19.76a9.87,9.87,0,1,1,9.85-9.85A9.88,9.88,0,0,1,81.33,19.76Zm0-16.59A6.72,6.72,0,1,0,88,9.88,6.73,6.73,0,0,0,81.33,3.17Z"/><path class="cls-2" d="M111.1,17.39a1.56,1.56,0,0,1-.1,2.18,1.63,1.63,0,0,1-1.07.39,1.54,1.54,0,0,1-1.14-.49l-6.21-6.86-6.16,6.76a1.52,1.52,0,0,1-1.14.52,1.62,1.62,0,0,1-1-.39,1.59,1.59,0,0,1-.1-2.21l6.34-7-6.53-7.2A1.51,1.51,0,0,1,94,.91a1.53,1.53,0,0,1,2.18.1l6.34,7L109,.94a1.53,1.53,0,0,1,2.18-.13,1.59,1.59,0,0,1,.1,2.21l-6.63,7.28Z"/><path class="cls-2" d="M123.89,19.76a9.87,9.87,0,1,1,9.85-9.85A9.88,9.88,0,0,1,123.89,19.76Zm0-16.59a6.72,6.72,0,1,0,6.71,6.71A6.73,6.73,0,0,0,123.89,3.17Z"/><path class="cls-2" d="M145.94,19.79a9.87,9.87,0,1,1,6.6-17.21,1.54,1.54,0,0,1,.1,2.21,1.56,1.56,0,0,1-2.18.1,6.74,6.74,0,1,0-4.52,11.75,6.69,6.69,0,0,0,4.6-1.79,1.56,1.56,0,0,1,2.21.08,1.59,1.59,0,0,1-.08,2.21A10,10,0,0,1,145.94,19.79Z"/><path class="cls-2" d="M170,1.66a1.57,1.57,0,0,1-1.56,1.59H164v15a1.57,1.57,0,1,1-3.15,0v-15h-4.45a1.57,1.57,0,0,1,0-3.15h12.06A1.56,1.56,0,0,1,170,1.66Z"/></g></g></svg>