<svg id="Layer_1" xmlns="http://www.w3.org/2000/svg" viewBox="0 0 2258.12 1836.09" preserveAspectRatio="xMinYMid"><defs><style>.cls-1{fill:#ccac90}.cls-2{fill:#ecd1b4}.cls-3{fill:#d9b799}.cls-4{fill:none}.cls-5{fill:#70401a}.cls-6{fill:#3b2518}.cls-7{fill:#e27a7b}.cls-8{fill:#ecd1b5}.cls-9{fill:#fff}.cls-10{fill:#1f1712}.cls-11{fill:#2c5871}.cls-12{fill:#8cc0d4}.cls-13{fill:#0c333f}.cls-14{fill:#86c1be}.cls-15{fill:#efd3bd}</style></defs><path class="cls-1" d="M2692.65 2875.54h-385v91h-1.3a314.26 314.26 0 0 1-55 83.26c64.89-18.67 381.49-111.19 441.28-156.39z" transform="translate(-1361.33 -1567.91)"/><path class="cls-2" d="M2215.15 3313.48l40.8 80 6 10.5h452.72l21.45-19.92 22-56.49 50.21-56.49c52.68-30.06-17.64-104.46 16.87-154.07-54.89-26.35-100.92-44.35-132.47-96v-127.6c-59.79 45.2-376.38 137.72-441.28 156.39a315.21 315.21 0 0 1-90.3 68.43c37.57 53.72-4.64 164.97 54 195.25zM2949.29 2308.36c-10.29 70.8 9.56 132.35 44.27 137.45s71.29-48.11 81.63-118.93-9.56-132.32-44.27-137.45-71.29 48.11-81.63 118.93z" transform="translate(-1361.33 -1567.91)"/><path class="cls-3" d="M2033.12 2298.52c7 72.4-14.18 133.69-47.18 136.89s-65.44-52.83-72.43-125.24 14.19-133.69 47.18-136.92 65.53 52.87 72.43 125.27z" transform="translate(-1361.33 -1567.91)"/><path class="cls-3" d="M2479.21 1694.24c-436.81-12.36-485.72 177.95-485.72 537.32 0 364.5 216.49 660.68 485.72 668.82 3.81.12 7.57.39 11.35.39V1694c-3.77.11-7.56.35-11.35.24z" transform="translate(-1361.33 -1567.91)"/><path class="cls-2" d="M2987.65 2231.57c0-369.57-211.24-537.74-485.82-537.74-3.76 0-7.51.14-11.26.21v1206.73c274.54 0 497.08-299.61 497.08-669.2z" transform="translate(-1361.33 -1567.91)"/><path class="cls-4" d="M2357.7 2643.67a51.14 51.14 0 0 0 51.14 51.13h81.74v-102.27h-81.74a51.14 51.14 0 0 0-51.14 51.14z" transform="translate(-1361.33 -1567.91)"/><path class="cls-4" d="M2570.93 2694.8a51.13 51.13 0 1 0 0-102.27h-80.36v102.27z" transform="translate(-1361.33 -1567.91)"/><path class="cls-5" d="M2984.32 2324.6s49.89-362.88 12.19-402.14-58.11-26.7-58.11-26.7 47.12-72.25 31.41-105.23-152.34-267-562.26-215.17-431.91 431.91-431.91 431.91 11 296.84 23.56 351.81l22-3.15 44-361.23s50.26 89.52 202.61 37.69 337.67-296.84 618.81-130.36c0 0 44 55 45.54 80.1s47.12 295.27 28.27 365.95z" transform="translate(-1361.33 -1567.91)"/><path class="cls-6" d="M2092.85 2143.75a19.79 19.79 0 0 1-8.71-37.58c1.32-.65 32.92-15.92 85.44-24.84 48-8.14 123.72-12.41 212.34 13.49a19.79 19.79 0 0 1-11.11 38c-155.39-45.42-268.15 8.36-269.27 8.9a19.67 19.67 0 0 1-8.69 2.03z" transform="translate(-1361.33 -1567.91)"/><path class="cls-5" d="M2967.29 2314.1c-68.21 226.6-193 284-250 298.56-4.13-12.41-21.66-55.68-94.7-72.94-30.65-8.92-66.36-15.66-93.44-15.72-7.84-.25-16-.56-24.48-.56h-29.94c-8.56 0-16.77.31-24.66.57-26.49.08-61.08 6.69-91.11 15.12-74.67 17.09-92.6 60.8-96.82 73.39-57.2-14.68-181.6-72.3-249.67-298.45l-20.69-9.75s37.7 620.9 495.69 626.38v.13s1.69-.06 2.71-.06c.23 0-.19 0 0 0h1.69v-.13c458-5.47 495.87-626.37 495.87-626.37z" transform="translate(-1361.33 -1567.91)"/><ellipse class="cls-3" cx="1062.48" cy="905.3" rx="53.96" ry="37.36"/><ellipse class="cls-2" cx="1202.44" cy="905.3" rx="53.96" ry="37.36"/><path class="cls-3" d="M2438.31 2493c0 20.24 23.25 36.71 52.26 37.33v-74.66c-29.02.6-52.26 17.07-52.26 37.33z" transform="translate(-1361.33 -1567.91)"/><path class="cls-2" d="M2492.27 2455.62h-1.7v74.66h1.7c29.8 0 54-16.72 54-37.36s-24.2-37.3-54-37.3z" transform="translate(-1361.33 -1567.91)"/><path class="cls-7" d="M2360.57 2636.29a122.25 122.25 0 0 0 4.68 14.33c7.4 19.17 24.62 53.74 58.68 77.19 18.27 12.57 41.35 22 70.39 24.16 29-2.15 52.13-11.52 70.38-24.09 34.06-23.44 51.28-58.09 58.68-77.26a123.17 123.17 0 0 0 4.68-14.31z" transform="translate(-1361.33 -1567.91)"/><path class="cls-8" d="M2494.32 2762.23h-.75c-28.11-2.08-53.49-10.79-75.43-25.89-36.53-25.14-54.79-62.07-62.42-81.84a137.42 137.42 0 0 1-5.07-15.42 9.4 9.4 0 0 1 1.89-8.35 9.89 9.89 0 0 1 8-3.52h267.49a9.67 9.67 0 0 1 9.94 12.06 142 142 0 0 1-5.08 15.32c-7.64 19.78-25.9 56.66-62.43 81.8-21.94 15.1-47.32 23.78-75.43 25.86-.21 0-.46-.02-.71-.02zm-119.62-114.59s.06-.23.09-.15c6.78 17.57 22.94 50.15 54.94 72.16 18.72 12.88 40.44 20.28 64.58 22.18 24.14-1.91 45.87-9.45 64.59-22.33 32-22 48.15-54.42 54.93-72 0-.09.07.12.1.12z" transform="translate(-1361.33 -1567.91)"/><path class="cls-9" d="M2564.7 2727.89h-140.77c18.27 12.57 41.35 22 70.39 24.11 29.03-2.14 52.13-11.54 70.38-24.11zM2360.57 2636.62a127.3 127.3 0 0 0 4.68 14.16c1 2.69 2.28 5.7 3.73 8.92h250.68c1.45-3.22 2.68-6.22 3.73-8.92a128 128 0 0 0 4.68-14.16z" transform="translate(-1361.33 -1567.91)"/><path class="cls-7" d="M2369 2659.7c8.85 19.73 25.68 48 55 68.19h140.7c29.28-20.15 46.11-48.46 55-68.19z" transform="translate(-1361.33 -1567.91)"/><path class="cls-9" d="M2356.94 2243.63s-45.05 42.9-100.64 42.9-100.63-42.9-100.63-42.9 45.06-42.89 100.63-42.89 100.64 42.89 100.64 42.89z" transform="translate(-1361.33 -1567.91)"/><path class="cls-10" d="M2284.38 2244a41.77 41.77 0 1 1-41.77-41.77 41.77 41.77 0 0 1 41.77 41.77z" transform="translate(-1361.33 -1567.91)"/><circle class="cls-9" cx="891.06" cy="664.92" r="14.01"/><path class="cls-9" d="M2818.12 2243.63s-45.06 42.9-100.63 42.9-100.64-42.9-100.64-42.9 45.06-42.89 100.64-42.89 100.63 42.89 100.63 42.89z" transform="translate(-1361.33 -1567.91)"/><circle class="cls-10" cx="1355.5" cy="676.06" r="41.77"/><circle class="cls-9" cx="1365.28" cy="664.92" r="14.02"/><path class="cls-6" d="M2582.79 2143.75a19.8 19.8 0 0 1-8.72-37.58c1.32-.65 32.91-15.92 85.44-24.84 48-8.14 123.72-12.41 212.34 13.49a19.79 19.79 0 1 1-11.11 38c-155.39-45.42-268.15 8.36-269.26 8.9a19.68 19.68 0 0 1-8.69 2.03z" transform="translate(-1361.33 -1567.91)"/><path class="cls-4" d="M1157.25 1669.6l66.62 41.45 10.32 35.23-16.05-27.79-60.89-48.89zM1035.27 1746.28l-29.55-57.55 116.38-21.99-60.71 63.69-26.12 15.85z"/><path class="cls-11" d="M1880 3404c-2.84-4.91-5.49-9.34-7.85-13.27-7.75-12.49-12.79-19.53-12.79-19.53s7.44 4.29 19.21 13.87a264.27 264.27 0 0 1 20.34 18.93h542.93l-45.22-89.81-29.55-57.55 116.37-22 35.16 2.86 66.6 41.5 10.32 35.23-45.2 89.81h534a304.85 304.85 0 0 1 37.44-37.86c11.78-9.56 19.22-13.85 19.22-13.85s-5.05 7-12.8 19.52c-3.81 6.35-8.35 14-13.28 22.83-1.74 2.93-3.43 6.08-5.14 9.36h123.66c-160.39-310.15-472.8-353.93-472.8-353.93l-267.89 185.15-285.1-191.15C1990.54 3090.6 1858 3251.3 1779.18 3404z" transform="translate(-1361.33 -1567.91)"/><path class="cls-12" d="M1188.99 1836.09l45.2-89.81-16.05-27.79-60.89-48.89-35.15-2.86-79.74 41.14-7.09 38.4 45.22 89.81h108.5z"/><path class="cls-13" d="M3109.8 3404c1.71-3.28 3.4-6.43 5.14-9.36 4.93-8.86 9.47-16.48 13.28-22.83 7.75-12.51 12.8-19.52 12.8-19.52s-7.44 4.29-19.22 13.85a304.85 304.85 0 0 0-37.44 37.86zM1880 3404h18.9a264.27 264.27 0 0 0-20.34-18.93c-11.77-9.58-19.21-13.87-19.21-13.87s5 7 12.79 19.53c2.36 3.93 5 8.36 7.86 13.27z" transform="translate(-1361.33 -1567.91)"/><path class="cls-14" d="M1035.27 1746.28l-29.55-57.55 116.38-21.99M1157.25 1669.6l66.62 41.45 10.32 35.23-16.05-27.79-60.89-48.89z"/><path class="cls-13" d="M1375.55 1422.4l-244.1 244.92 153.78 123.63 137.86-314.78-47.54-53.77zM893.91 1422.4l237.54 244.92-158.85 128.52-126.25-319.67 47.56-53.77z"/><path class="cls-13" d="M3005.66 2071.22s-84.92-427.8-493.12-427.8-516 372.29-516 372.29l62 6.54S2159.84 1720 2501.1 1720s462.09 351.18 462.09 351.18zM2370.68 2734.49s-279.15-77.49-368.2-235.13c0 0-24.73-26-53.06 10.79s248.57 232.93 411.87 272.47c0 0 1.62 31.07 82.7 48.79s105-6.41 105-6.41 47.54-36.86 7.4-77.34-81.31-35.75-81.31-35.75-80.54-11.19-104.4 22.58z" transform="translate(-1361.33 -1567.91)"/><path class="cls-11" d="M2025.21 2167.38s-3.86 347.54 7.43 369.71c0 0-142.59 26.25-152.68-77.8l-11.73-179.22s1.13-74 75.49-107.35l68.45-4.48" transform="translate(-1361.33 -1567.91)"/><circle class="cls-15" cx="2151.45" cy="729.58" r="106.66"/><circle class="cls-15" cx="106.66" cy="729.58" r="106.66"/><circle class="cls-15" cx="3397.05" cy="1824.64" r="106.66" transform="rotate(-27.55 -481.618 3817)"/><circle class="cls-15" cx="1584.09" cy="2770.33" r="106.66" transform="rotate(-27.55 -2294.465 4762.59)"/><circle class="cls-15" cx="3391.34" cy="2781.12" r="106.66" transform="rotate(-61.77 1399.884 3135.127)"/><circle class="cls-15" cx="1589.8" cy="1813.85" r="106.66" transform="rotate(-61.77 -401.606 2167.863)"/></svg>