<svg xmlns="http://www.w3.org/2000/svg" viewBox="0 0 1180.01 1057.4" width="1180.01" height="1057.4" preserveAspectRatio="xMaxYMax"><defs><style>.cls-1{fill:none}.cls-2{clip-path:url(#clip-path)}.cls-3{fill:#130c0e}.cls-4{fill:#f9c292}.cls-5{fill:#e5ac80}.cls-6{fill:#fde8d5}.cls-7{fill:#ffdd3a}.cls-8{fill:#ffb001}.cls-9{fill:#ffc300}.cls-10,.cls-12{fill:#231f20}.cls-10,.cls-11{opacity:.2}.cls-13{fill:#fdd615}.cls-14{fill:#ffc201}.cls-15{fill:#753409}.cls-16{fill:#913c0b}.cls-17{fill:#fcda18}.cls-18{fill:#fff}.cls-19{fill:#e6e7e8}.cls-20{fill:#414042}.cls-21{fill:#dd331f}.cls-22{fill:#bf261b}.cls-23{fill:#ef4c2f}.cls-24{fill:#fcda4f}.cls-25{clip-path:url(#clip-path-2)}.cls-26{fill:#d91920}</style><clipPath id="clip-path" transform="translate(-12 -117.79)"><path class="cls-1" d="M734.99 819.58l-2.02-36.84 50.68-138.26 20.72-14.19 9.9 29.14-79.28 160.15z"/></clipPath><clipPath id="clip-path-2" transform="translate(-12 -117.79)"><path class="cls-1" d="M-1879.58-127.56h4637.37v4637.37h-4637.37z"/></clipPath></defs><g id="_winner_trophy"><g class="cls-2"><path class="cls-3" transform="rotate(-.87 -6988.898 1456.443)" d="M732.94 631.4h81.96v187.09h-81.96z"/><path class="cls-3" d="M730.79 700.47l.84 55.29.34 22.38-9.4.14c6.87 7 15.09 11.74 24.46 15.17a72.05 72.05 0 0 0 55.27-2.28A66.87 66.87 0 0 0 824.76 775l-7.3.11-1.54-101.55 5.34-.08c-6.87-7-15.1-11.85-24.47-15.28a72.05 72.05 0 0 0-55.27 2.33 67 67 0 0 0-22.45 16.28l11.36-.17z" transform="translate(-12 -117.79)"/><path class="cls-3" d="M730.83 703.09l.75 49.7.3 20-4.33.07c6.19 7 13.57 10.6 22 13.69a64.76 64.76 0 0 0 49.68-2.16c7.54-3.5 14.43-7.49 20.18-14.7h-2l-1.24-82 8.43-.13a58 58 0 0 0-8.3-9.41 64.4 64.4 0 0 0-71.66-11.12c-7.54 3.5-14.43 7.7-20.17 14.92l6.09-.09z" transform="translate(-12 -117.79)"/><path class="cls-3" d="M730.86 705.1l.68 44.54-11.94.18a55.89 55.89 0 0 0 32.48 30.39c29.9 11 63-5.11 74-33.79l-9 .14-.74-44.56 7.88-.12a55.89 55.89 0 0 0-32.48-30.39c-29.9-11-63 5.11-74 33.79z" transform="translate(-12 -117.79)"/><path class="cls-3" d="M730.91 708.66l.57 37.41-4.57.07c5.35 12.39 15.07 21.22 27.93 25.93a49.49 49.49 0 1 0 34.16-92.9c-25.71-9.43-54.19 4.49-63.62 29.58z" transform="translate(-12 -117.79)"/></g><g id="hand"><path class="cls-4" d="M831.16 826.31l-193.75-71c-25.82-9.46-35.43-48-24.77-77.11l13-35.45c10.66-29.1 40.24-45 66.06-35.55l240.43 88.13-17 46.26z" transform="translate(-12 -117.79)"/><path class="cls-4" d="M536.61 681.27c-7.21 19.66 1.44 44.38 18.9 50.77l110 38.32c21.07 0 40.5-4.71 47.71-24.37l36.17-98.67c7.21-19.66-21.43-48.24-38.88-54.63l-93-34.1c-17.45-6.4-37.45 4.35-44.65 24z" transform="translate(-12 -117.79)"/><path class="cls-5" d="M708.54 673.84c-36.5-7.22-64.24-61.27-58-104.47l-33.12-10.79c-17.45-6.4-37.45 4.35-44.65 24l-36.17 98.67c-7.21 19.66-.41 43.7 16.88 51.3l112 37.79 11.51-.55c-19.68-42.58 31.55-95.95 31.55-95.95z" transform="translate(-12 -117.79)"/><path class="cls-4" d="M547.72 500.15c-.94-13 9.08-13.68 9.08-13.68l67.7 2.81s25.68 4.79 30.6 6.17 55.87 48.33 68.45 59.84 34.76 82.66 34.76 82.66L654.2 612.41l-4.13-26.58.48-16.46-11.63-11.67-9.83-12.11-8.15-13.69s-3.55-.28-4.47-.29c-3.13 0-15.3-2.48-15.3-2.48l-9.48-1.83-25.9-6.17c-1.85-.46-8.3-3.81-9.65-5.13 0 0-4.46-4.11-5.92-7.29a20.43 20.43 0 0 1-2.5-8.56z" transform="translate(-12 -117.79)"/><path class="cls-6" d="M586.49 487.88c.69-2 0-.08 0 0-.33 8.35-11.42 17-23.91 16.48a32.93 32.93 0 0 1-7.25-1.09l.55-16.65z" transform="translate(-12 -117.79)"/><path class="cls-7" d="M733.87 511.08c5.63-1 12.64-2.51 21-3.95 14.19-2.69 32.57-5.12 44.5-8.52 23.29-7.5 56.6-17.21 86.27-35.46 28.06-17.08 46-50.44 1.1-86-19.06-15.08-51.22-29.84-91.63-37.78l7.64-21.37c4.68.81 9.28 1.69 13.79 2.65 64.11 13.06 110.34 40.26 131.44 64.67 45 52.57-1.71 86.24-41.07 104-93.55 42.11-193.16 33.36-197.91 31.84-1.08-2.55 14.34-.11 13.15-2.65z" transform="translate(-12 -117.79)"/><path class="cls-8" d="M559.78 447.87c-3.73-4.33-8.2-9.94-13.78-16.37-9.28-11.07-22-24.58-29.05-34.77-13.28-20.55-32.92-49.15-44.34-82.06-10.9-31-3.71-68.19 53.6-67.29 24.3.39 58.54 9.32 94.85 28.76l7.61-21.32q-6.2-3.5-12.36-6.67c-57.9-30.48-110.9-38.68-142.69-33.14-68.13 12.19-53.27 67.84-34 106.48 45.76 91.83 128.41 148.11 133.08 150 2.45-1.29-11-9.16-8.51-10.37z" transform="translate(-12 -117.79)"/><path class="cls-7" transform="rotate(-70.36 515.962 566.064)" d="M469.44 600.39h272.04v32.1H469.44z"/><path class="cls-9" transform="rotate(-70.1 511.1 564.251)" d="M461.89 598.11h272.04v31.26H461.89z"/><path class="cls-8" transform="rotate(-70.36 502.03 561.096)" d="M455.52 595.84h272.04v31.26H455.52z"/><path class="cls-10" d="M664 500.09l-12.63 35.4-1.7 4.76A183.2 183.2 0 0 1 627.4 534c-3.5-1.25-17.13-7.1-20.33-8.82h-.17a5.61 5.61 0 0 1-1-.54l14.31-40.11z" transform="translate(-12 -117.79)"/><path class="cls-8" d="M863.13 285.88l24.15 8.62C836.63 436.1 771.75 545 640.4 498.16c-4-1.42-7.79-2.95-11.49-4.54 122.89 35.71 184.71-69.32 234.22-207.74z" transform="translate(-12 -117.79)"/><path class="cls-8" d="M839 277.27l24.15 8.62C813.62 424.3 751.79 529.34 628.9 493.64c-3.9-1.68-7.64-3.49-11.24-5.36C732 513.16 790.9 411.71 839 277.27z" transform="translate(-12 -117.79)"/><path class="cls-8" d="M617.66 488.26c-97.59-50.75-87.34-169.52-39.46-304l260.78 93C790.9 411.71 732 513.14 617.66 488.26z" transform="translate(-12 -117.79)"/><g class="cls-11"><path class="cls-12" d="M640.4 498.16c-4-1.42-7.79-2.95-11.49-4.54 122.89 35.71 184.71-69.32 234.22-207.74l24.15 8.62C836.63 436.1 771.75 545 640.4 498.16z" transform="translate(-12 -117.79)"/><path class="cls-12" d="M839 277.27l24.15 8.62C813.62 424.3 751.79 529.34 628.9 493.64c-3.83-1.65-7.55-3.28-11.1-5.12-.07 0-.1-.14-.17-.15-97.63-50.75-87.31-169.64-39.43-304.15z" transform="translate(-12 -117.79)"/></g><path class="cls-7" d="M856.88 303.39L881 312c-50.9 142.4-115.31 250-246.66 203.14-4-1.42-7.89-2.68-11.58-4.28 122.89 35.71 185.19-70.64 234.12-207.47z" transform="translate(-12 -117.79)"/><path class="cls-9" d="M832.73 294.77l24.15 8.62c-48.93 136.83-111.14 242.93-234 207.23-3.9-1.68-7.73-3.23-11.34-5.1 114.35 24.88 173.68-77.9 221.19-210.75z" transform="translate(-12 -117.79)"/><path class="cls-8" d="M611.42 505.76C513.83 455 524.64 334.65 572 201.73l260.78 93C785.22 427.62 725.8 530.65 611.42 505.76z" transform="translate(-12 -117.79)"/><path class="cls-13" d="M605 763.38l-125.11-44.64c-.35-.12-.72-.2-1.08-.31a31.19 31.19 0 0 1 11.94 1.5l125.11 44.64c5.5 2 15.92 11.79 15 19.08s-4.66 21.54-8.27 31.69c-.27.75-.61 1.65-.92 2.43l-10-3.56c3.69-10.34 7.33-24.37 8.27-31.66s-9.44-17.2-14.94-19.17z" transform="translate(-12 -117.79)"/><path class="cls-14" d="M609.22 781c.93-7.29-9.3-17.63-14.8-19.59l-120.4-43a27.44 27.44 0 0 1 5-.48c.37.11.57.66.92.78L605 763.38c5.5 2 15.89 11.87 15 19.16s-4.58 21.32-8.27 31.66l-10-3.58c3.45-10.4 6.63-22.91 7.49-29.62z" transform="translate(-12 -117.79)"/><path class="cls-8" d="M609.22 781c-.86 6.72-4 19.23-7.57 29.63l-149.07-53.19s.58-1.72.87-2.51c3.62-10.14 15.15-33.92 19.53-35.77.29-.12.8-.8 1-.72l120.4 43c5.55 1.93 15.78 12.27 14.84 19.56z" transform="translate(-12 -117.79)"/><path class="cls-10" transform="rotate(-70.36 398.665 862.625)" d="M482 757.75h12.33v310.44H482z"/><path class="cls-15" transform="rotate(-70.36 419.879 815.252)" d="M424.05 687.35h170.66v356.52H424.05z"/><path class="cls-16" transform="rotate(-70.36 504.442 845.493)" d="M507.99 807.41h171.9v176.9h-171.9z"/><path class="cls-14" d="M611.16 750.74l-23.85 66.84-80.34-28.66 83.85-45.43 20.34 7.25z"/><path class="cls-17" d="M590.82 743.49l-83.85 45.43-51.33-18.32 85.07-44.99 50.11 17.88z"/><path class="cls-14" d="M540.71 725.61l-85.07 44.99-30.41-10.85 86.62-44.44 28.86 10.3zM408.25 678.35l80.79 28.82-86.9 44.34-17.74-6.32 23.85-66.84z"/><path class="cls-17" d="M511.85 715.31l-86.62 44.44-23.09-8.24 86.9-44.34 22.81 8.14z"/><path class="cls-15" transform="rotate(-70.36 377.885 919.126)" d="M440.78 756.16H494v426.64h-53.22z"/><path class="cls-16" transform="rotate(-70.36 380.58 911.566)" d="M451.5 748.6h37.17v426.64H451.5z"/><path class="cls-7" d="M905.46 272.29a12 12 0 0 1 7.54 15.33l-4.84 13.55a12.7 12.7 0 0 1-.74 1.62 12.24 12.24 0 0 0 12.95-8.18l4.84-13.55a11.86 11.86 0 0 0-7.51-15.19L572.33 142.66a12 12 0 0 0-14.69 5.9 11.72 11.72 0 0 1 2.5.52z" transform="translate(-12 -117.79)"/><path class="cls-9" d="M553.89 157.61L893.28 278.7a12.14 12.14 0 0 1 7.47 15.48l-2.19 6.14 6 2.15a12.83 12.83 0 0 0 2.64.46 15.39 15.39 0 0 0 .89-1.76l4.91-13.55a12 12 0 0 0-7.49-15.33L560.14 149.08a13.47 13.47 0 0 0-2.57-.84 10.14 10.14 0 0 0-.83 1.38z" transform="translate(-12 -117.79)"/><path class="cls-8" d="M893.28 278.7L553.89 157.61l-2 5.56c-2.29 6.42 1.12 13.87 7.36 16.1l339.3 121.05 2.19-6.14a12.14 12.14 0 0 0-7.46-15.48z" transform="translate(-12 -117.79)"/><path class="cls-4" d="M527.09 546.74c-4.08 11.14-.9 22.54 7.1 25.48l88.52 32.45c8 2.93 17.8-3.72 21.88-14.85 4.08-11.14.9-22.54-7.1-25.48L549 531.88c-8-2.93-17.8 3.72-21.88 14.85z" transform="translate(-12 -117.79)"/><path class="cls-6" d="M629.81 598.55a21.27 21.27 0 0 1-5.75-1.25c-9.38-3.44-14.65-12.58-11.77-20.43s12.81-11.42 22.19-8a21.26 21.26 0 0 1 5.19 2.76z" transform="translate(-12 -117.79)"/><path class="cls-4" d="M509.71 591c-4.08 11.14.06 22.9 9.25 26.26l101.68 37.27c9.19 3.37 20-2.93 24-14.07 4.08-11.14-.06-22.9-9.25-26.26l-101.64-37.26c-9.19-3.37-20 2.93-24 14.07z" transform="translate(-12 -117.79)"/><path class="cls-6" d="M627.49 649.44a24.4 24.4 0 0 1-6.15-1.39c-10.06-3.69-15.89-13-13-20.89s13.37-11.22 23.43-7.53a24.39 24.39 0 0 1 5.59 2.91z" transform="translate(-12 -117.79)"/><path class="cls-4" d="M494.43 636c-4.08 11.14-.34 22.75 8.36 25.94L599 697.2c8.7 3.19 19.06-3.26 23.14-14.39 4.08-11.14.34-22.75-8.36-25.94l-96.21-35.27c-8.7-3.19-19.06 3.26-23.14 14.39z" transform="translate(-12 -117.79)"/><path class="cls-6" d="M605.49 692a24.39 24.39 0 0 1-6.15-1.39c-10.06-3.69-15.89-13-13-20.89s13.37-11.22 23.43-7.53a24.39 24.39 0 0 1 5.59 2.91z" transform="translate(-12 -117.79)"/><path class="cls-4" d="M477.82 680.69c-4.08 11.14-1.17 22.45 6.51 25.26l84.92 31.13c7.68 2.81 17.21-3.93 21.29-15.07 4.08-11.14 1.17-22.45-6.51-25.26l-84.92-31.13c-7.68-2.81-17.21 3.93-21.29 15.07z" transform="translate(-12 -117.79)"/><path class="cls-6" d="M576 731.92a24.39 24.39 0 0 1-6.15-1.39c-10.06-3.69-15.89-13-13-20.89s13.37-11.22 23.43-7.53a24.39 24.39 0 0 1 5.59 2.91z" transform="translate(-12 -117.79)"/></g><path class="cls-18" transform="rotate(-69.87 672.252 665.722)" d="M678.19 701.56h168.74v28.93H678.19z"/><path class="cls-19" transform="rotate(-69.87 646.212 736.774)" d="M727.82 772.61h17.39v28.93h-17.39z"/><path class="cls-20" d="M1180.01 860.01L722.99 701.79l69.38-189.29 387.64 107.69v239.82z"/><path class="cls-12" d="M1180.01 898.83L722.99 701.79l18.5-50.48 438.52 160.6v86.92z"/><path class="cls-18" d="M829.98 391.83l-4.78-59.41-5.24 59.17-57.58.35 58.04 7.16 4.78 55.85 4.78-55.63 58.03-2.95-58.03-4.54zM882.5 219.56l-2.19-27.14-2.39 27.03-26.3.16 26.51 3.27 2.18 25.52 2.19-25.41 26.51-1.36-26.51-2.07zM916.65 38.1l-1.11-13.68-1.2 13.63-13.26.08 13.37 1.65 1.09 12.86 1.11-12.81 13.36-.68-13.36-1.05zM724.42 37.46L721.4 0l-3.3 37.31-36.31.22 36.6 4.51 3.01 35.22 3.02-35.07 36.59-1.87-36.59-2.86zM560.61 38.01L558.51 12l-2.29 25.9-25.21.15 25.41 3.14 2.09 24.45 2.1-24.35 25.4-1.3-25.4-1.98zM440.08 104.17L439.26 94l-.9 10.13-9.85.06 9.93 1.22.82 9.56.82-9.52 9.93-.5-9.93-.78zM403.82 677.62l-1.5-18.62-1.63 18.54-18.05.11 18.19 2.25 1.49 17.5 1.5-17.43 18.19-.93-18.19-1.42z"/><path class="cls-21" d="M695.01 850.97l235.01 84.94-55.7 13.16-57.43 13.83 35.24 47.73 34.52 46.77-235.49-85.11 43.85-121.32zM280.27 701.06L44.32 615.78l34.42 45.72 35.32 47.36-57.61 14.17L0 736.92l236.42 85.46 43.85-121.32z"/><path class="cls-22" d="M773.85 1037.24s-66.18-49.81-66.68-69.24c0-1.75-31.08 76.77-31.08 76.77zM195.65 828.24s84 4.49 96.84-10.11c1.15-1.32-24.86 79-24.86 79z" transform="translate(-12 -117.79)"/><path class="cls-23" d="M137.59 943.32c198.64 70.92 403.1 145.23 608.79 220l28.3-125.86C578.46 962 384.35 890.42 196.3 828.45z" transform="translate(-12 -117.79)"/><path class="cls-24" d="M213.77 870.16l-3.93-2.55q3.31-4.83 9.8-2.48 3.84 1.39 5.19 3.79a5.43 5.43 0 0 1 .52 4.67 5.06 5.06 0 0 1-1.91 2.5 8.06 8.06 0 0 1-3.48 1.24 7.33 7.33 0 0 1 2.5 3.29 5.54 5.54 0 0 1-.13 3.75 6.14 6.14 0 0 1-3.79 3.88q-2.75 1-6.94-.51a11.54 11.54 0 0 1-5-3.09 7.59 7.59 0 0 1-1.43-5.34l4.51.14a4.5 4.5 0 0 0 .74 3.14 5.47 5.47 0 0 0 2.34 1.5 4.58 4.58 0 0 0 3.36.2 2.94 2.94 0 0 0 1.7-1.72 2.74 2.74 0 0 0-.3-2.55 5.69 5.69 0 0 0-3-2l-1-.36 1.19-3.29.51.18a5 5 0 0 0 3.42.21 3.19 3.19 0 0 0 1.94-2 2.82 2.82 0 0 0-.14-2.32 3.73 3.73 0 0 0-2.2-1.72 3.6 3.6 0 0 0-4.47 1.44zM226.62 880.56a14.76 14.76 0 0 1 3-5.23 10.9 10.9 0 0 1 3.11-2.26 9 9 0 0 1 3.53-.94 12.73 12.73 0 0 1 5 .84 10.89 10.89 0 0 1 6.63 5.78q1.81 4-.12 9.37t-5.77 7.22a12.2 12.2 0 0 1-15.42-5.56q-1.85-4.01.04-9.22zm4.59 1.49q-1.34 3.71-.32 6.24a6.26 6.26 0 0 0 8.66 3.15q2.38-1.29 3.75-5.08t.38-6.19a6.48 6.48 0 0 0-8.77-3.15q-2.34 1.27-3.7 5.03zM256 878.71l15.28 5.53-7.89 21.82-4.4-1.59 6.56-18.12L259 884l-3.37 9.32a41.36 41.36 0 0 1-2.29 5.49 4.25 4.25 0 0 1-2.2 2 5.22 5.22 0 0 1-3.56-.29q-.77-.28-2.76-1.17l1.23-3.41 1 .37a3.44 3.44 0 0 0 2 .3q.61-.2 1.14-1.66l1.34-3.75zM270.95 896.6a14.75 14.75 0 0 1 3-5.23 10.91 10.91 0 0 1 3.11-2.26 9 9 0 0 1 3.53-.94 12.75 12.75 0 0 1 5 .84 10.89 10.89 0 0 1 6.63 5.78q1.81 4-.12 9.37t-5.86 7.23a12.2 12.2 0 0 1-15.42-5.56q-1.76-4.02.13-9.23zm4.59 1.49q-1.34 3.7-.32 6.24a6.26 6.26 0 0 0 8.66 3.15q2.38-1.29 3.75-5.08t.38-6.19a6.48 6.48 0 0 0-8.77-3.15q-2.34 1.27-3.7 5.04zM296.56 918.06l6.56-18.12-6.47-2.34 1.35-3.7 17.34 6.27-1.34 3.69-6.46-2.34-6.54 18.13zM312.51 911.64a14.75 14.75 0 0 1 3-5.23 10.91 10.91 0 0 1 3.11-2.26 9 9 0 0 1 3.53-.94 12.73 12.73 0 0 1 5 .84 10.89 10.89 0 0 1 6.63 5.78q1.81 4-.12 9.37t-5.86 7.23a10.81 10.81 0 0 1-8.76.21 10.92 10.92 0 0 1-6.66-5.77q-1.75-4.02.13-9.23zm4.59 1.49q-1.34 3.7-.32 6.24a6.26 6.26 0 0 0 8.66 3.15q2.38-1.29 3.75-5.08t.38-6.19a6.48 6.48 0 0 0-8.77-3.15q-2.33 1.27-3.7 5.04zM341.16 909.53l4.12 1.49-5.28 14.52 14.1-11.33 4.39 1.59-7.89 21.82-4.12-1.49 5.15-14.24-14 11-4.41-1.59zm13.27-1.34l2 .74a5 5 0 0 1-2.57 2.66 5.4 5.4 0 0 1-6.44-2.33 5 5 0 0 1-.27-3.69l2 .74a2.44 2.44 0 0 0 .17 1.87 3.67 3.67 0 0 0 3.72 1.35 2.43 2.43 0 0 0 1.4-1.34zM380.44 939.34l3.78 2.9a10.18 10.18 0 0 1-5.19 4.12 10.93 10.93 0 0 1-12.49-5.92q-1.72-4 .14-9.13 2-5.45 5.87-7.44a10.26 10.26 0 0 1 8.49-.34 9.65 9.65 0 0 1 5.65 4.72 9.14 9.14 0 0 1 .78 4.83l-4.74-.54a4.8 4.8 0 0 0-3.27-5.33 5.28 5.28 0 0 0-4.57.32q-2.14 1.19-3.55 5.09-1.5 4.14-.64 6.43a5.14 5.14 0 0 0 3.23 3.16 4.69 4.69 0 0 0 3.43 0 6.9 6.9 0 0 0 3.08-2.87zM385.59 950.28l7.89-21.82 16.18 5.85-1.33 3.69-11.77-4.26-1.75 4.84 11 4-1.33 3.68-11-4-2.15 5.94 12.19 4.41-1.33 3.68zM405.92 957.63l7.89-21.82 7.07 2.56a27.35 27.35 0 0 1 5.12 2.23 6.09 6.09 0 0 1 2.37 3.27 7.21 7.21 0 0 1-.27 4.71 7.58 7.58 0 0 1-2 3.11 6.35 6.35 0 0 1-2.63 1.48 6.78 6.78 0 0 1-2.66.21 26.68 26.68 0 0 1-4.68-1.34l-2.87-1-3 8.23zm11-16.53l-2.24 6.19 2.41.87a12.11 12.11 0 0 0 3.61.92 3.08 3.08 0 0 0 1.76-.57 3.13 3.13 0 0 0 1.11-1.52 3 3 0 0 0 0-2.22 3.24 3.24 0 0 0-1.42-1.61 22.5 22.5 0 0 0-3.11-1.3zM430.76 966.62l6.56-18.12-6.47-2.34 1.34-3.69 17.34 6.27-1.34 3.69-6.46-2.34-6.56 18.13zM452.41 949.78l4.12 1.49-5.26 14.52 14.1-11.33 4.39 1.59-7.89 21.82-4.12-1.49 5.15-14.24-14 11-4.41-1.59zM480.23 981.65l-.92 2.54-4.31-1.56.92-2.54q-5.15-2.08-6.44-5.25a9.14 9.14 0 0 1 0-6.75 8.8 8.8 0 0 1 4.44-5.25q3.07-1.47 8.17.16l.78-2.16 4.31 1.56-.78 2.16q5.12 2.07 6.43 5.22a10 10 0 0 1-4.33 12q-2.99 1.56-8.27-.13zm-3-5.24l3.53-9.75a5.84 5.84 0 0 0-4.47-.21 5.45 5.45 0 0 0-2.6 3.31q-1.69 4.75 3.56 6.65zm4.31 1.56a7.42 7.42 0 0 0 3.18.49 3.88 3.88 0 0 0 2.33-.92 6.69 6.69 0 0 0 1.56-2.68q1.71-4.73-3.54-6.63zM500.33 967.12l4.12 1.49-5.26 14.53 14.1-11.33 4.39 1.59-7.89 21.82-4.12-1.49 5.15-14.24-14 11-4.41-1.59zM522.25 975.06l4.4 1.59-6.57 18.16 8.54 3.09 6.57-18.16 4.41 1.59-6.6 18.16 1.82.66-3 8.42-3.66-1.33 1.72-4.76-15.51-5.61zM544.5 983.11l4.12 1.49-5.26 14.52 14.1-11.33 4.39 1.59-7.85 21.82-4.12-1.49 5.12-14.24-14 11-4.41-1.59zM558.45 1012.83l7.9-21.83 7.07 2.56a27.24 27.24 0 0 1 5.12 2.22 6.08 6.08 0 0 1 2.37 3.27 7.2 7.2 0 0 1-.27 4.71 7.57 7.57 0 0 1-2 3.11 6.38 6.38 0 0 1-2.63 1.48 6.8 6.8 0 0 1-2.66.21 26.73 26.73 0 0 1-4.68-1.34l-2.87-1-3 8.23zm11-16.53l-2.24 6.19 2.41.87a12.11 12.11 0 0 0 3.61.92 3.08 3.08 0 0 0 1.76-.57 3.13 3.13 0 0 0 1.11-1.52 3 3 0 0 0 0-2.22 3.25 3.25 0 0 0-1.42-1.61 22.5 22.5 0 0 0-3.11-1.3zM581.38 1008.94a14.75 14.75 0 0 1 3-5.23 10.91 10.91 0 0 1 3.11-2.26 9 9 0 0 1 3.53-.94 12.73 12.73 0 0 1 5 .84 10.89 10.89 0 0 1 6.63 5.78q1.81 4-.12 9.37t-5.86 7.23a10.81 10.81 0 0 1-8.76.21 10.92 10.92 0 0 1-6.66-5.77q-1.75-4.02.13-9.23zm4.59 1.49q-1.34 3.7-.32 6.24a6.26 6.26 0 0 0 8.66 3.15q2.38-1.29 3.75-5.08t.38-6.19a6.48 6.48 0 0 0-8.77-3.15q-2.33 1.27-3.67 5.04zM610 1006.81l8.72 3.16a26.81 26.81 0 0 1 3.78 1.61 6 6 0 0 1 2 1.72 5.93 5.93 0 0 1 1 2.43 5.26 5.26 0 0 1-.25 2.8 5.5 5.5 0 0 1-4.78 3.62 6.11 6.11 0 0 1 2.35 3.09 5.59 5.59 0 0 1-.12 3.68 6.9 6.9 0 0 1-1.74 2.64 6.19 6.19 0 0 1-2.7 1.56 6.64 6.64 0 0 1-3.33 0q-1.14-.28-5.37-1.77l-7.42-2.69zm0 13.9l-2.11 5.83 4.08 1.48a21.23 21.23 0 0 0 3.07 1 2.9 2.9 0 0 0 1.92-.29 2.86 2.86 0 0 0 1.29-1.63 3 3 0 0 0 .13-1.84 2.86 2.86 0 0 0-1-1.5 15.93 15.93 0 0 0-3.79-1.72zm3.14-8.68l-1.83 5 2.89 1q2.57.93 3.23 1.08a3.09 3.09 0 0 0 2.06-.14 2.45 2.45 0 0 0 1.26-1.47 2.55 2.55 0 0 0 0-1.85 2.68 2.68 0 0 0-1.38-1.37q-.63-.31-3.74-1.44zM642.25 1043.15l-4.79-1.73-.11-5.64-8.72-3.16-3.59 4.3-4.67-1.69 16.39-18.74 4.66 1.69zm-5-11.57l-.08-9.18-5.87 7zM644.6 1044l7.89-21.82 4.41 1.59-3.11 8.59 8.63 3.12 3.11-8.59 4.4 1.59-7.93 21.83-4.4-1.59 3.45-9.54-8.63-3.12-3.42 9.54zM666.61 1052l7.89-21.82 4.4 1.59-3.11 8.59 8.63 3.12 3.11-8.59 4.4 1.59-7.93 21.8-4.4-1.59 3.45-9.54-8.63-3.12-3.45 9.54zM696.61 1038.15l4.41 1.59-3.16 8.72 5.89 2.13a12 12 0 0 1 3.77 2.08 6.24 6.24 0 0 1 2 3.27 6.87 6.87 0 0 1-.24 4.15 6.72 6.72 0 0 1-2.54 3.4 6 6 0 0 1-3.35 1.19 13.53 13.53 0 0 1-4.35-1l-10.3-3.73zm-2.16 19.75l4.3 1.56a14.63 14.63 0 0 0 2.94.84 3 3 0 0 0 1.77-.39 2.7 2.7 0 0 0 1.26-1.51 2.66 2.66 0 0 0-.24-2.56 7.29 7.29 0 0 0-3.46-2.08l-4.48-1.62zm22.91-12.24l4.41 1.59-7.89 21.82-4.41-1.59zM726.39 1048.93l4.12 1.49-5.26 14.52 14.1-11.33 4.39 1.59-7.89 21.8-4.12-1.49 5.15-14.24-14 11-4.41-1.59zm13.28-1.34l2 .74a5 5 0 0 1-2.57 2.66 5.4 5.4 0 0 1-6.44-2.33 5 5 0 0 1-.27-3.69l2 .74a2.43 2.43 0 0 0 .16 1.87 3.68 3.68 0 0 0 3.72 1.35 2.43 2.43 0 0 0 1.4-1.34zM196.75 899.82l26.88 9.73-12.23 33.79-6.82-2.47 10.18-28.12-13.24-4.75-10.18 28.12-6.82-2.47zM248.84 956.88l-7.42-2.69-.17-8.74-13.51-4.89-5.57 6.67-7.24-2.62 25.39-29 7.21 2.61zM241.11 939l-.11-14.26-9.1 10.89zM252.45 958.19l12.23-33.79 10.95 4a42.23 42.23 0 0 1 7.93 3.44 9.43 9.43 0 0 1 3.67 5.07 11.16 11.16 0 0 1-.42 7.29 11.73 11.73 0 0 1-3 4.82 9.86 9.86 0 0 1-4.07 2.29 10.5 10.5 0 0 1-4.12.32 41.37 41.37 0 0 1-7.25-2.08l-4.45-1.61-4.61 12.75zm17-25.61l-3.45 9.6 3.74 1.35a18.77 18.77 0 0 0 5.59 1.42 4.76 4.76 0 0 0 2.73-.89 4.84 4.84 0 0 0 1.72-2.35 4.65 4.65 0 0 0 0-3.44 5 5 0 0 0-2.2-2.49 34.75 34.75 0 0 0-4.83-2zM290.93 972.12L301.09 944l-10-3.63 2.07-5.72 26.84 9.76-2.07 5.72-10-3.62-10.16 28.08zM312.18 979.81L324.41 946l6.82 2.47-4.81 13.3 13.37 4.84 4.81-13.3 6.82 2.47-12.23 33.79-6.82-2.47 5.35-14.78-13.37-4.84-5.35 14.8zM346.25 992.13l12.23-33.79 25.06 9.07-2.07 5.72-18.23-6.6-2.72 7.47 17 6.14-2.06 5.69-17-6.14-3.33 9.2 18.87 6.85-2.06 5.69zM377.73 1003.53L390 969.74l10.95 4a42.29 42.29 0 0 1 7.93 3.44 9.43 9.43 0 0 1 3.67 5.07 11.15 11.15 0 0 1-.42 7.29 11.73 11.73 0 0 1-3 4.82 9.86 9.86 0 0 1-4.08 2.29 10.51 10.51 0 0 1-4.12.32 41.43 41.43 0 0 1-7.25-2.08l-4.45-1.61-4.67 12.72zm17-25.61l-3.47 9.59 3.73 1.35a18.78 18.78 0 0 0 5.59 1.42 4.76 4.76 0 0 0 2.73-.89A4.83 4.83 0 0 0 405 987a4.64 4.64 0 0 0 0-3.43 5 5 0 0 0-2.2-2.49 34.92 34.92 0 0 0-4.83-2zM437.48 1025.15l-6.48-2.34 8.83-24.41a23.77 23.77 0 0 1-10.14 1.88l2.13-5.88a19.92 19.92 0 0 0 6.65-1.15 12.71 12.71 0 0 0 6-3.93l5.26 1.9zM474.71 1024.57l5.86 4.49q-3.52 5-8 6.39a16.93 16.93 0 0 1-19.35-9.17q-2.67-6.17.22-14.14 3.05-8.44 9.1-11.53a15.88 15.88 0 0 1 13.15-.52 14.94 14.94 0 0 1 8.75 7.31 14.19 14.19 0 0 1 1.21 7.47l-7.34-.83a7.42 7.42 0 0 0-5.07-8.25 8.17 8.17 0 0 0-7.07.49q-3.32 1.85-5.5 7.89-2.32 6.41-1 10a8 8 0 0 0 5 4.89 7.26 7.26 0 0 0 5.3 0 10.69 10.69 0 0 0 4.74-4.49zM485.16 1032.21l2.34-6.48 12.72 4.6-2.34 6.48zM510.77 1013.46l25.23 9.14-2.05 5.67-18.44-6.67-2.84 7.84 9.13 3.3a19.41 19.41 0 0 1 5.94 3.19 9.63 9.63 0 0 1 3 5 11.25 11.25 0 0 1-4.25 11.71 9.9 9.9 0 0 1-5.26 1.88 19.41 19.41 0 0 1-6.79-1.44l-16-5.77zm-3.35 30.54l6.64 2.4a23.26 23.26 0 0 0 4.58 1.31 4.52 4.52 0 0 0 2.76-.6 4.26 4.26 0 0 0 1.94-2.37 4 4 0 0 0-.43-4q-1.28-1.68-5.32-3.14l-6.94-2.51zM544.66 1025.72L551 1028l-8.14 22.5 21.87-17.5 6.8 2.46-12.23 33.79-6.38-2.31 8-22.06-21.67 17.12-6.82-2.47zM573.87 1074.51l10.13-28.08-10-3.63 2.07-5.72 26.85 9.72-2.07 5.72-10-3.62-10.16 28.1zM595.1 1082.19l12.23-33.79 10.95 4a42.29 42.29 0 0 1 7.93 3.44 9.43 9.43 0 0 1 3.67 5.07 11.15 11.15 0 0 1-.42 7.29 11.73 11.73 0 0 1-3 4.82 9.85 9.85 0 0 1-4.08 2.29 10.51 10.51 0 0 1-4.12.32 41.41 41.41 0 0 1-7.25-2.08l-4.45-1.61-4.61 12.75zm17-25.61l-3.47 9.59 3.73 1.35a18.78 18.78 0 0 0 5.59 1.42 4.76 4.76 0 0 0 2.73-.89 4.82 4.82 0 0 0 1.72-2.35 4.64 4.64 0 0 0 0-3.43 5 5 0 0 0-2.2-2.49 35 35 0 0 0-4.83-2zM638.91 1059.83l6.38 2.31-8.14 22.5 21.85-17.55 6.8 2.46-12.23 33.79-6.38-2.31 8-22.06-21.65 17.11-6.82-2.47zM672.86 1072.11l6.82 2.47-5.2 14.42a4.9 4.9 0 0 0 3.51-.06 25.41 25.41 0 0 0 4.39-4.35q4.11-4.72 6.73-5.28t7.33 1.14l1 .34-1.83 5-1-.37a7.25 7.25 0 0 0-3.25-.59 4.17 4.17 0 0 0-2.14 1 35.85 35.85 0 0 0-3.35 3.71 16.5 16.5 0 0 1-2.41 2.44 7.36 7.36 0 0 1-3.37 1.28 7.48 7.48 0 0 1 2.83 4 38.12 38.12 0 0 1 1.26 6.71l1.26 10.93-8-2.9-.87-10.2c0-.15-.06-.43-.13-.86q0-.23-.28-1.9a10.74 10.74 0 0 0-1-3.89 4.7 4.7 0 0 0-2.34-1.58l-5.36 14.8-6.82-2.47zM714.83 1111.46l5.86 4.49q-3.52 5-8 6.39a16.93 16.93 0 0 1-19.35-9.17q-2.67-6.17.22-14.14 3.05-8.44 9.1-11.53a15.88 15.88 0 0 1 13.14-.52 14.94 14.94 0 0 1 8.75 7.31 14.18 14.18 0 0 1 1.21 7.47l-7.34-.83a7.43 7.43 0 0 0-5.07-8.25 8.17 8.17 0 0 0-7.07.49q-3.32 1.85-5.5 7.89-2.32 6.41-1 10a8 8 0 0 0 5 4.89 7.27 7.27 0 0 0 5.3 0 10.69 10.69 0 0 0 4.75-4.49z" transform="translate(-12 -117.79)"/><g class="cls-25"><g id="g14"><g id="g20"><path id="path22" class="cls-26" d="M506.57 884.73a34 34 0 0 1-6-3.24c-.32-.22-1.61-1.27-1.92-1.57a20.39 20.39 0 1 1 33.45-8.42l7 2.38A27.77 27.77 0 1 0 492.35 884a33.81 33.81 0 0 0 3.72 3.3 41.32 41.32 0 0 0 7.32 4c.85.36 3.87 1.43 4.76 1.74l48 16.4 2.37-6.95-47.92-16.31c-.64-.22-3.42-1.19-4-1.45m7.77-9.52c-.51-.17-3.15-1.1-3.63-1.3a25 25 0 0 1-2.68-1.33 11.62 11.62 0 0 1-1.81-1.45 8.78 8.78 0 1 1 14.84-3.38l6.7 2.29a15.86 15.86 0 1 0-26.44 6.2 14.31 14.31 0 0 0 2.22 1.88 30.11 30.11 0 0 0 4.49 2.34c.54.24 3.25 1.19 3.82 1.39L560 898.29l2.29-6.71zm-41.27 5.89l-7-2.4 15.57-45.7-10.26-3.5 2.4-7 17.28 5.9zm-10.59-50.68l-2.31 6.75 7.71 2.63-12.09 35.4 6.75 2.3L477 835.35z" transform="translate(-12 -117.79)"/></g><g id="g24"><path id="path26" class="cls-26" d="M561.6 853.05a4.85 4.85 0 0 0-6.18 3 4.92 4.92 0 0 0 3 6.21 4.87 4.87 0 0 0 6.2-3 4.8 4.8 0 0 0-3.07-6.13m-2.88 8.43a4.06 4.06 0 1 1 5.2-2.56 4.08 4.08 0 0 1-5.2 2.56" transform="translate(-12 -117.79)"/></g><g id="g28"><path id="path30" class="cls-26" d="M561.38 859.45c.17-.51.26-1-.26-1.4a1.07 1.07 0 0 0 1.15-.75 1.42 1.42 0 0 0-1.05-1.84l-2-.69-1.55 4.55.84.29.64-1.87.66.23c1 .33.88.79.74 1.19-.26.78-.31.92-.17 1.09l.84.29c-.12-.25 0-.36.17-1.09m-1-2l-1-.34.49-1.43.85.29c.59.2.92.52.73 1.07-.1.29-.38.65-1.08.41" transform="translate(-12 -117.79)"/></g></g></g></g></svg>