<svg xmlns="http://www.w3.org/2000/svg" xmlns:xlink="http://www.w3.org/1999/xlink" viewBox="0 0 45.35 36.4"><defs><style>.cls-1{fill:url(#New_Gradient_Swatch_3)}.cls-2{fill:url(#New_Gradient_Swatch_4)}.cls-3{fill:url(#New_Gradient_Swatch_4-2)}</style><linearGradient id="New_Gradient_Swatch_3" x1="19.88" x2="19.88" y2="36.31" gradientUnits="userSpaceOnUse"><stop offset="0" stop-color="#a4acb4"/><stop offset=".21" stop-color="#9ea5ad"/><stop offset=".52" stop-color="#8c929a"/><stop offset=".88" stop-color="#70747a"/><stop offset="1" stop-color="#65686e"/></linearGradient><linearGradient id="New_Gradient_Swatch_4" x1="35.43" y1="21.48" x2="35.43" y2="36.4" gradientUnits="userSpaceOnUse"><stop offset="0" stop-color="#ee7d00"/><stop offset=".24" stop-color="#ec7901"/><stop offset=".49" stop-color="#e56c03"/><stop offset=".75" stop-color="#da5707"/><stop offset="1" stop-color="#cb3b0c"/></linearGradient><linearGradient id="New_Gradient_Swatch_4-2" x1="35.43" y1="9.84" x2="35.43" y2="20.39" xlink:href="#New_Gradient_Swatch_4"/></defs><g id="Слой_2"><g id="Symbol"><path class="cls-1" d="M0 6.25V4.52A4.69 4.69 0 0 1 4.84 0h30.07a4.69 4.69 0 0 1 4.85 4.52v1.73A4.27 4.27 0 0 1 39 8.63a8.63 8.63 0 0 0-3.58-.79 8.75 8.75 0 0 0-6.49 2.92H4.84A4.69 4.69 0 0 1 0 6.25zm35.43 8.87a2 2 0 0 0-2 2v2.38h3.97v-2.34a2 2 0 0 0-1.97-2.04zM4.84 23.54h18.83a4.89 4.89 0 0 1 2.81-3.66v-2.72a9.53 9.53 0 0 1 1.06-4.39H4.84A4.69 4.69 0 0 0 0 17.29V19a4.69 4.69 0 0 0 4.84 4.54zm18.75 10v-8H4.84A4.68 4.68 0 0 0 0 30.05v1.73a4.69 4.69 0 0 0 4.84 4.52h19.61a5 5 0 0 1-.86-2.8z"/><path class="cls-2" d="M45.35 24.39v9.11a2.85 2.85 0 0 1-2.8 2.9H28.3a2.85 2.85 0 0 1-2.8-2.9v-9.11a2.85 2.85 0 0 1 2.8-2.91h14.25a2.85 2.85 0 0 1 2.8 2.91zm-7.95 3a2 2 0 1 0-4 0 2.1 2.1 0 0 0 .8 1.65v2.5a1.18 1.18 0 1 0 2.36 0V29a2.1 2.1 0 0 0 .84-1.65z"/><path class="cls-3" d="M31.55 17.16a3.88 3.88 0 1 1 7.76 0v3.23h3.15v-3.23a7 7 0 1 0-14.07 0v3.23h3.16z"/></g></g></svg>