<svg xmlns="http://www.w3.org/2000/svg" viewBox="0 0 57 39"><defs><style>.cls-1{fill:url(#New_Gradient_Swatch_3)}.cls-2{fill:url(#New_Gradient_Swatch_4)}</style><linearGradient id="New_Gradient_Swatch_3" x1="28.5" x2="28.5" y2="39" gradientUnits="userSpaceOnUse"><stop offset="0" stop-color="#a4acb4"/><stop offset=".21" stop-color="#9ea5ad"/><stop offset=".52" stop-color="#8c929a"/><stop offset=".88" stop-color="#70747a"/><stop offset="1" stop-color="#65686e"/></linearGradient><linearGradient id="New_Gradient_Swatch_4" x1="33.83" y1="6.38" x2="33.83" y2="12.75" gradientUnits="userSpaceOnUse"><stop offset="0" stop-color="#ee7d00"/><stop offset=".24" stop-color="#ec7901"/><stop offset=".49" stop-color="#e56c03"/><stop offset=".75" stop-color="#da5707"/><stop offset="1" stop-color="#cb3b0c"/></linearGradient></defs><g id="Слой_2"><g id="Symbol"><path class="cls-1" d="M13.76.33H4.82A5.1 5.1 0 0 0 0 5.64v28.05A5.09 5.09 0 0 0 4.82 39h8.94a5.09 5.09 0 0 0 4.82-5.31V5.64A5.09 5.09 0 0 0 13.76.33zM4.42 5.11h9.75a1 1 0 0 1 1 1.06 1 1 0 0 1-1 1.06H4.42a1 1 0 0 1-1-1.06 1 1 0 0 1 1-1.06zm4.87 27.8a2.22 2.22 0 1 1 2.17-2.22 2.19 2.19 0 0 1-2.17 2.22zm4.87-20.45H4.42a1.07 1.07 0 0 1 0-2.12h9.75a1.06 1.06 0 0 1 0 2.12zM46.8 37.31a12.73 12.73 0 0 0-1.1-1.37 7.23 7.23 0 0 1-.86-3.55H34.9a7.21 7.21 0 0 1-.9 3.55c-.41.54-.74.88-.93 1.12a1.15 1.15 0 0 0-.32.8 1.07 1.07 0 0 0 1 1.11h12.2a1.06 1.06 0 0 0 1-1.11 1.16 1.16 0 0 0-.15-.55zM55.9 0H23.83a1.16 1.16 0 0 0-1.1 1.21v28a1.16 1.16 0 0 0 1.1 1.21H55.9a1.16 1.16 0 0 0 1.1-1.16v-28A1.16 1.16 0 0 0 55.9 0zm-1.65 23.23a.84.84 0 0 1-.79.87H26.27a.84.84 0 0 1-.79-.87V3.61a.83.83 0 0 1 .79-.86h27.2a.83.83 0 0 1 .79.86z"/><path class="cls-2" d="M29.63 12.75a1 1 0 0 1-1-1v-4.4a1 1 0 0 1 1-1H38a1 1 0 0 1 0 1.95h-7.39v3.45a1 1 0 0 1-.98 1z"/></g></g></svg>