<svg xmlns="http://www.w3.org/2000/svg" xmlns:xlink="http://www.w3.org/1999/xlink" viewBox="0 0 47.78 32"><defs><style>.cls-1{fill:url(#New_Gradient_Swatch_4)}.cls-2{fill:url(#New_Gradient_Swatch_3)}.cls-3{fill:url(#New_Gradient_Swatch_3-2)}.cls-4{fill:url(#New_Gradient_Swatch_3-3)}.cls-5{fill:url(#New_Gradient_Swatch_3-4)}.cls-6{fill:url(#New_Gradient_Swatch_3-5)}.cls-7{fill:url(#New_Gradient_Swatch_3-6)}.cls-8{fill:url(#New_Gradient_Swatch_3-7)}</style><linearGradient id="New_Gradient_Swatch_4" x1="26.15" y1="8.67" x2="26.15" y2="26.15" gradientUnits="userSpaceOnUse"><stop offset="0" stop-color="#ee7d00"/><stop offset=".24" stop-color="#ec7901"/><stop offset=".49" stop-color="#e56c03"/><stop offset=".75" stop-color="#da5707"/><stop offset="1" stop-color="#cb3b0c"/></linearGradient><linearGradient id="New_Gradient_Swatch_3" x1="23.89" x2="23.89" y2="32" gradientUnits="userSpaceOnUse"><stop offset="0" stop-color="#a4acb4"/><stop offset=".21" stop-color="#9ea5ad"/><stop offset=".52" stop-color="#8c929a"/><stop offset=".88" stop-color="#70747a"/><stop offset="1" stop-color="#65686e"/></linearGradient><linearGradient id="New_Gradient_Swatch_3-2" x1="7.49" y1="21.08" x2="7.49" y2="24.65" xlink:href="#New_Gradient_Swatch_3"/><linearGradient id="New_Gradient_Swatch_3-3" x1="39.05" y1="21.08" x2="39.05" y2="24.65" xlink:href="#New_Gradient_Swatch_3"/><linearGradient id="New_Gradient_Swatch_3-4" x1="10.8" y1="13.3" x2="10.8" y2="16.87" xlink:href="#New_Gradient_Swatch_3"/><linearGradient id="New_Gradient_Swatch_3-5" x1="37.02" y1="13.3" x2="37.02" y2="16.87" xlink:href="#New_Gradient_Swatch_3"/><linearGradient id="New_Gradient_Swatch_3-6" x1="16.68" y1="7.6" x2="16.68" y2="11.17" xlink:href="#New_Gradient_Swatch_3"/><linearGradient id="New_Gradient_Swatch_3-7" x1="24.25" y1="5.87" x2="24.25" y2="9.44" xlink:href="#New_Gradient_Swatch_3"/></defs><g id="Слой_2"><g id="Symbol"><path class="cls-1" d="M31.55 8.67a1.15 1.15 0 0 0-.8.3L20.51 19.15a4.19 4.19 0 0 0-1 2.59 4.22 4.22 0 0 0 7.55 2.77c1.17-1.09 5.6-14 5.68-14.26a1.2 1.2 0 0 0-1.19-1.58zM23.66 23.9a2 2 0 1 1 2-1.92 2 2 0 0 1-2 1.92z"/><path class="cls-2" d="M23.89 0A24 24 0 0 0 0 24a18.39 18.39 0 0 0 .22 3.33A6.13 6.13 0 0 0 6 32h35.77a6.12 6.12 0 0 0 5.79-4.68 17.16 17.16 0 0 0 .22-3.32A24 24 0 0 0 23.89 0zm20.5 26.61a2.87 2.87 0 0 1-2.62 2.11H6a2.87 2.87 0 0 1-2.62-2.11A15.69 15.69 0 0 1 3.24 24a20.65 20.65 0 1 1 41.3 0 16 16 0 0 1-.15 2.61z"/><ellipse class="cls-3" cx="7.5" cy="22.87" rx="1.73" ry="1.78"/><ellipse class="cls-4" cx="39.05" cy="22.87" rx="1.73" ry="1.78"/><ellipse class="cls-5" cx="10.8" cy="15.09" rx="1.73" ry="1.78"/><ellipse class="cls-6" cx="37.02" cy="15.09" rx="1.73" ry="1.78"/><path class="cls-7" d="M18.41 9.38a1.73 1.73 0 1 1-1.73-1.78 1.75 1.75 0 0 1 1.73 1.78z"/><ellipse class="cls-8" cx="24.26" cy="7.65" rx="1.73" ry="1.78"/></g></g></svg>