<svg xmlns="http://www.w3.org/2000/svg" xmlns:xlink="http://www.w3.org/1999/xlink" viewBox="0 0 46.81 41"><defs><style>.cls-1{fill:url(#New_Gradient_Swatch_3);}.cls-2{fill:url(#New_Gradient_Swatch_4);}</style><linearGradient id="New_Gradient_Swatch_3" x1="23.74" y1="14.99" x2="23.74" y2="41" gradientUnits="userSpaceOnUse"><stop offset="0" stop-color="#a4acb4"/><stop offset="0.21" stop-color="#9ea5ad"/><stop offset="0.52" stop-color="#8c929a"/><stop offset="0.88" stop-color="#70747a"/><stop offset="1" stop-color="#65686e"/></linearGradient><linearGradient id="New_Gradient_Swatch_4" x1="22.44" x2="22.44" y2="23.65" gradientUnits="userSpaceOnUse"><stop offset="0" stop-color="#ee7d00"/><stop offset="0.24" stop-color="#ec7901"/><stop offset="0.49" stop-color="#e56c03"/><stop offset="0.75" stop-color="#da5707"/><stop offset="1" stop-color="#cb3b0c"/></linearGradient></defs><title>pic__features--powerРесурс 4</title><g id="Слой_2" data-name="Слой 2"><g id="Symbol"><path class="cls-1" d="M10.12,33.47A2.43,2.43,0,0,0,7.7,31H3.08A2.43,2.43,0,0,0,.66,33.47v5.12A2.43,2.43,0,0,0,3.08,41H7.7a2.42,2.42,0,0,0,2.42-2.42Zm12-11a2.42,2.42,0,0,0-2.42-2.42H15.1a2.42,2.42,0,0,0-2.42,2.42V38.58A2.42,2.42,0,0,0,15.1,41h4.62a2.42,2.42,0,0,0,2.42-2.42Zm24.66-5A2.56,2.56,0,0,0,44.25,15H39.91a2.56,2.56,0,0,0-2.55,2.55V38.45A2.56,2.56,0,0,0,39.91,41h4.35a2.56,2.56,0,0,0,2.55-2.55Zm-12.64,10a2.43,2.43,0,0,0-2.42-2.42H27.12a2.43,2.43,0,0,0-2.42,2.42V38.58A2.43,2.43,0,0,0,27.12,41h4.62a2.42,2.42,0,0,0,2.42-2.42Z"/><path class="cls-2" d="M44.87,0l-9.2,1,3,3-10,12.2L18.36,6.66a1.87,1.87,0,0,0-2.52,0L.61,20.39a1.87,1.87,0,0,0,2.51,2.78h0l14-12.61,10.56,9.77a1.87,1.87,0,0,0,2.71-.19l11-13.45,2.52,2.52Z"/></g></g></svg>