<svg xmlns="http://www.w3.org/2000/svg" xmlns:xlink="http://www.w3.org/1999/xlink" viewBox="0 0 45 45.04"><defs><style>.cls-1{fill:url(#New_Gradient_Swatch_3);}</style><linearGradient id="New_Gradient_Swatch_3" x1="22.5" x2="22.5" y2="45.04" gradientUnits="userSpaceOnUse"><stop offset="0" stop-color="#a4acb4"/><stop offset="0.21" stop-color="#9ea5ad"/><stop offset="0.52" stop-color="#8c929a"/><stop offset="0.88" stop-color="#70747a"/><stop offset="1" stop-color="#65686e"/></linearGradient></defs><title>pic__features--monitoringРесурс 9</title><g id="Слой_2" data-name="Слой 2"><g id="Symbol"><path class="cls-1" d="M43.59,19.36l-3.21-.78-.69-.17-.2-.69A17.36,17.36,0,0,0,38,14.11l-.37-.68.44-.63,1.55-2.18a1.84,1.84,0,0,0-.2-2.38L37.27,6A1.85,1.85,0,0,0,36,5.52a1.9,1.9,0,0,0-1,.27L32.55,7.27l-.62.37-.62-.36a17.71,17.71,0,0,0-3.85-1.6l-.75-.21-.13-.77L26,1.54A1.85,1.85,0,0,0,24.22,0H21.14a1.84,1.84,0,0,0-1.8,1.41l-.84,3.5-.17.68-.67.21a17.58,17.58,0,0,0-3.52,1.52l-.63.37-.62-.38L9.39,5.18a1.89,1.89,0,0,0-1-.27,1.83,1.83,0,0,0-1.31.54L5,7.63A1.88,1.88,0,0,0,4.75,10l2.36,3.32.43.61-.33.67A17.19,17.19,0,0,0,6,17.6l-.2.68-.7.17-3.73.91A1.86,1.86,0,0,0,0,21.16v3.07a1.85,1.85,0,0,0,1.54,1.83l3.58.61.75.13.22.73a17.4,17.4,0,0,0,1.34,3.23l.34.63L7.4,32,5.18,35.64a1.85,1.85,0,0,0,.27,2.27l2.17,2.18a1.86,1.86,0,0,0,1.31.54A1.9,1.9,0,0,0,10,40.29l3.29-2.34.62-.44.67.35a16.62,16.62,0,0,0,3,1.26l.68.2.16.68.88,3.62A1.84,1.84,0,0,0,21.14,45h3.07A1.85,1.85,0,0,0,26,43.5l.56-3.29.13-.77.75-.21a16.69,16.69,0,0,0,3.3-1.29l.67-.35.62.43,2.33,1.65a1.78,1.78,0,0,0,1.07.35,1.86,1.86,0,0,0,1.31-.54L39,37.31A1.85,1.85,0,0,0,39.22,35L37.73,32.6,37.35,32l.38-.64a17,17,0,0,0,1.7-3.89l.22-.72.75-.13,3.06-.53A1.84,1.84,0,0,0,45,24.23V21.16A1.85,1.85,0,0,0,43.59,19.36ZM22.68,31.87a9.41,9.41,0,1,1,9.4-9.4A9.4,9.4,0,0,1,22.68,31.87Z"/></g></g></svg>