<svg xmlns="http://www.w3.org/2000/svg" xmlns:xlink="http://www.w3.org/1999/xlink" viewBox="0 0 45.13 42"><defs><style>.cls-1{fill:url(#New_Gradient_Swatch_3);}.cls-2{fill:url(#New_Gradient_Swatch_4);}</style><linearGradient id="New_Gradient_Swatch_3" x1="20.32" x2="20.32" y2="35.99" gradientUnits="userSpaceOnUse"><stop offset="0" stop-color="#a4acb4"/><stop offset="0.21" stop-color="#9ea5ad"/><stop offset="0.52" stop-color="#8c929a"/><stop offset="0.88" stop-color="#70747a"/><stop offset="1" stop-color="#65686e"/></linearGradient><linearGradient id="New_Gradient_Swatch_4" x1="26.35" y1="18.17" x2="26.35" y2="42" gradientUnits="userSpaceOnUse"><stop offset="0" stop-color="#ee7d00"/><stop offset="0.24" stop-color="#ec7901"/><stop offset="0.49" stop-color="#e56c03"/><stop offset="0.75" stop-color="#da5707"/><stop offset="1" stop-color="#cb3b0c"/></linearGradient></defs><title>pic__features--trafficРесурс 7</title><g id="Слой_2" data-name="Слой 2"><g id="Symbol"><path class="cls-1" d="M24.52,21.45H21.35v8H29a17.33,17.33,0,0,0,1.67-3c.09-.6.17-1.21.22-1.83l-2.95-1.48ZM27.83,5.79C26,2.35,23.7.34,21.35,0V10.15h8.21A25.8,25.8,0,0,0,27.83,5.79Zm-6.48,6v8.06h5.48l1.41-.41,2.73-.8a37.14,37.14,0,0,0-1-6.84Zm0,23.4a14.36,14.36,0,0,0,6.33-4.08H21.35ZM8.18,21.45H0a20.79,20.79,0,0,0,1.87,8H9.08A40.46,40.46,0,0,1,8.18,21.45Zm1-9.68H2a20.81,20.81,0,0,0-2,8.06H8.19A39.76,39.76,0,0,1,9.16,11.77ZM2.68,31.09l.07.12a17.19,17.19,0,0,0,8.3,4.31,30,30,0,0,1-1.57-4.43ZM10.2,19.83h9.13V11.77h-8.1A37.43,37.43,0,0,0,10.2,19.83ZM26.84.91a17.32,17.32,0,0,1,2.76,3.94,27.82,27.82,0,0,1,2.06,5.3h6.69A20.74,20.74,0,0,0,26.84.91ZM39.22,11.77H32.08A38.34,38.34,0,0,1,33,18l6.52-1.92,1.15-.34A20.57,20.57,0,0,0,39.22,11.77Zm-25.8-6a24.78,24.78,0,0,0-1.75,4.36h7.66V.11C17.18.67,15.07,2.62,13.42,5.79Zm-1.79-.94A17.19,17.19,0,0,1,14.39.91,20.74,20.74,0,0,0,2.88,10.15H9.56A28.08,28.08,0,0,1,11.63,4.85Zm1.79,30.91s0,.08.07.12c1,.09,1.77.1,2.37.1a19,19,0,0,0,3.48-.32V31.09H11.57A25.17,25.17,0,0,0,13.42,35.77Zm-2.27-6.3h8.18v-8H10.2A38,38,0,0,0,11.15,29.47Z"/><path class="cls-2" d="M33.62,23.77l-4.81-2.42,12-3.18,4.34,11.76s-3.34-1.7-4.74-2.52C36.22,39.46,21.62,48,7.58,36.8,30.1,42.93,33.62,23.77,33.62,23.77Z"/></g></g></svg>