<svg xmlns="http://www.w3.org/2000/svg" xmlns:xlink="http://www.w3.org/1999/xlink"><symbol viewBox="4.1 0 22.062 22.062" id="arrow--left" xmlns="http://www.w3.org/2000/svg"><path d="M10.544 11.031l6.742-6.742c.81-.809.81-2.135 0-2.944l-.737-.737a2.086 2.086 0 0 0-2.945 0L4.769 9.443a2.072 2.072 0 0 0-.597 1.589 2.07 2.07 0 0 0 .597 1.588l8.835 8.834c.81.811 2.135.811 2.945 0l.737-.737c.81-.808.81-2.134 0-2.943l-6.742-6.743z"/></symbol><symbol viewBox="0 0 13.8 22.062" id="arrow--right" xmlns="http://www.w3.org/2000/svg"><path d="M17.294 9.443L8.459.608a2.086 2.086 0 0 0-2.945 0l-.739.737c-.81.81-.81 2.136 0 2.944l6.742 6.743-6.742 6.741a2.086 2.086 0 0 0 0 2.943l.737.737c.81.811 2.136.811 2.945 0l8.835-8.836a2.074 2.074 0 0 0 .597-1.589 2.06 2.06 0 0 0-.595-1.585z"/></symbol><symbol viewBox="0 0 67.23 67.23" id="servers--cluster" xmlns="http://www.w3.org/2000/svg"><circle cx="33.62" cy="7.32" r="7.32"/><circle cx="15.02" cy="15.02" r="7.32" transform="rotate(-45 15.02 15.018)"/><circle cx="7.32" cy="33.62" r="7.32"/><circle cx="15.02" cy="52.21" r="7.32" transform="rotate(-45 15.016 52.21)"/><circle cx="33.62" cy="59.91" r="7.32"/><circle cx="52.21" cy="52.21" r="7.32" transform="rotate(-45 52.208 52.215)"/><circle cx="59.91" cy="33.62" r="7.32"/><circle cx="52.21" cy="15.02" r="7.32" transform="rotate(-45 52.213 15.023)"/><circle cx="33.62" cy="33.62" r="10.72"/></symbol><symbol viewBox="0 0 41.66 59.17" id="servers--data" xmlns="http://www.w3.org/2000/svg"><path d="M34.38 0H7.28A7.28 7.28 0 0 0 0 7.28V51.9a7.28 7.28 0 0 0 7.28 7.28h27.1a7.28 7.28 0 0 0 7.28-7.28V7.28A7.28 7.28 0 0 0 34.38 0zM20.83 48.29A4.26 4.26 0 1 1 25.09 44a4.26 4.26 0 0 1-4.26 4.29zm9.47-22.68H11.36a2.84 2.84 0 0 1 0-5.68H30.3a2.84 2.84 0 0 1 0 5.68zm0-11.42H11.36a2.84 2.84 0 0 1 0-5.68H30.3a2.84 2.84 0 0 1 0 5.68z"/></symbol><symbol viewBox="0 0 45.31 57.81" id="servers--equipment" xmlns="http://www.w3.org/2000/svg"><path d="M0 18.93v14.46h45.31V18.93zm39.71 9.64H26.85v-4.82h12.86zM0 0v14.46h45.31V0zm39.71 9.64H26.85V4.82h12.86zM15.43 43.67h14.46v14.14H15.43z"/><path d="M18.96 36.8h7.39v10.93h-7.39zm14.48 10.25h10.93v7.39H33.44zm-32.5 0h10.93v7.39H.94z"/></symbol><symbol viewBox="0 0 39.27 65.84" id="servers--internet" xmlns="http://www.w3.org/2000/svg"><path d="M4.66 64.95l29.22.89-.98-29.29-28.24 28.4z"/><path d="M.003 44.986L13.028 31.96 28.16 47.093 15.135 60.118zM34.6.9L5.38 0l.99 29.3L34.6.9z"/><path d="M11.114 18.745L24.14 5.72l15.132 15.132-13.025 13.025z"/></symbol><symbol viewBox="0 0 56 56" id="servers--mirror" xmlns="http://www.w3.org/2000/svg"><rect x="34.13" width="21.88" height="21.88" rx="3.5" ry="3.5"/><rect width="21.88" height="21.88" rx="3.5" ry="3.5"/><rect y="34.13" width="21.88" height="21.88" rx="3.5" ry="3.5"/><rect x="34.13" y="34.13" width="21.88" height="21.88" rx="3.5" ry="3.5"/></symbol><symbol viewBox="0 0 58.28 60.48" id="servers--power" xmlns="http://www.w3.org/2000/svg"><circle cx="22.28" cy="9.16" r="9.16"/><circle cx="7.8" cy="27.11" r="7.81"/><circle cx="14.09" cy="47.22" r="7.17"/><circle cx="32.07" cy="54.39" r="6.09"/><circle cx="47.27" cy="47.22" r="5.27"/><circle cx="53.83" cy="34.12" r="4.45"/><circle cx="52.23" cy="21.36" r="3.24"/><circle cx="44.83" cy="12.4" r="2.48"/></symbol><symbol viewBox="0 0 43.42 66.35" id="servers--protection" xmlns="http://www.w3.org/2000/svg"><path d="M21.71 5.27A15.65 15.65 0 1 1 6.06 20.93 15.67 15.67 0 0 1 21.71 5.27m0-5.27a20.93 20.93 0 1 0 20.93 20.93A20.93 20.93 0 0 0 21.71 0z"/><path d="M5.51 10.87h32.73v3.3H5.51zm0 8.41h32.73v3.3H5.51zm0 8.41h32.73v3.3H5.51z"/><path d="M17.56 40a40.05 40.05 0 0 1-4.82-19.09 41.45 41.45 0 0 1 4.81-19.27l2.84 1.66L19 2.47l1.42.83A38.82 38.82 0 0 0 16 20.93a37.39 37.39 0 0 0 4.35 17.4zm8.33 0l-2.83-1.7a37.39 37.39 0 0 0 4.35-17.4A38.8 38.8 0 0 0 23 3.3l2.9-1.66a41.43 41.43 0 0 1 4.81 19.29A40 40 0 0 1 25.89 40zM14.48 52.21h14.46v14.14H14.48z"/><path d="M18.02 45.33h7.39v10.93h-7.39zM32.5 55.58h10.93v7.39H32.5zm-32.5 0h10.93v7.39H0z"/></symbol><symbol viewBox="0 0 44.71 65.1" id="servers--security" xmlns="http://www.w3.org/2000/svg"><path d="M9.43 20.49v-1.9a12.92 12.92 0 1 1 25.85 0v1.9A25.87 25.87 0 0 1 40.94 25v-6.41a18.59 18.59 0 1 0-37.17 0V25a25.88 25.88 0 0 1 5.66-4.51z"/><path d="M40.94 30.33a22.35 22.35 0 1 0 3.77 12.42 22.46 22.46 0 0 0-3.77-12.42zM22.35 55.75a13 13 0 1 1 13-13 13 13 0 0 1-13 13z"/></symbol><symbol viewBox="0 0 63.31 53.45" id="servers--soft" xmlns="http://www.w3.org/2000/svg"><path d="M63.22 23.89A5.31 5.31 0 0 0 61.71 21L53.42 5.32C51.94 2.67 51 0 48.1 0H15.21c-2.94 0-3.65 2.42-5.32 5.32L1.6 21a5.31 5.31 0 0 0-1.51 2.89 4 4 0 0 0-.07.55v23.69a5.32 5.32 0 0 0 5.32 5.32H58a5.32 5.32 0 0 0 5.32-5.32V24.44a4 4 0 0 0-.1-.55zM15.88 8.62c.3-.53.57-1 .8-1.46l.17-.31h29.63l.27.5c.21.41.43.82.67 1.24l5.76 10.92h-43zm23.19 32.7H24.24a4.85 4.85 0 1 1 0-9.69h14.83a4.85 4.85 0 1 1 0 9.69z"/></symbol><symbol viewBox="0 0 45.31 55.84" id="servers--ssd" xmlns="http://www.w3.org/2000/svg"><path d="M0 41.38v14.46h45.31V41.38zM39.71 51H26.85v-4.8h12.86zM0 20.69v14.46h45.31V20.69zm39.71 9.64H26.85v-4.82h12.86zM0 0v14.46h45.31V0zm39.71 9.64H26.85V4.82h12.86z"/></symbol></svg>