<svg xmlns="http://www.w3.org/2000/svg" viewBox="0 0 44.71 65.1"><defs><style>.cls-1{fill:#45484a;}</style></defs><title>servers--securityРесурс 10</title><g id="Слой_2" data-name="Слой 2"><g id="_1" data-name=" 1"><path class="cls-1" d="M9.43,20.49v-1.9a12.92,12.92,0,1,1,25.85,0v1.9A25.87,25.87,0,0,1,40.94,25V18.59a18.59,18.59,0,1,0-37.17,0V25A25.88,25.88,0,0,1,9.43,20.49Z"/><path class="cls-1" d="M40.94,30.33a22.35,22.35,0,1,0,3.77,12.42A22.46,22.46,0,0,0,40.94,30.33ZM22.35,55.75a13,13,0,1,1,13-13A13,13,0,0,1,22.35,55.75Z"/></g></g></svg>