<svg xmlns="http://www.w3.org/2000/svg" viewBox="0 0 43.42 66.35"><defs><style>.cls-1{fill:#45484a;}</style></defs><title>servers--protectionРесурс 9</title><g id="Слой_2" data-name="Слой 2"><g id="_1" data-name=" 1"><path class="cls-1" d="M21.71,5.27A15.65,15.65,0,1,1,6.06,20.93,15.67,15.67,0,0,1,21.71,5.27m0-5.27A20.93,20.93,0,1,0,42.64,20.93,20.93,20.93,0,0,0,21.71,0Z"/><rect class="cls-1" x="5.51" y="10.87" width="32.73" height="3.3"/><rect class="cls-1" x="5.51" y="19.28" width="32.73" height="3.3"/><rect class="cls-1" x="5.51" y="27.69" width="32.73" height="3.3"/><path class="cls-1" d="M17.56,40a40.05,40.05,0,0,1-4.82-19.09A41.45,41.45,0,0,1,17.55,1.64L20.39,3.3,19,2.47l1.42.83A38.82,38.82,0,0,0,16,20.93a37.39,37.39,0,0,0,4.35,17.4Z"/><path class="cls-1" d="M25.89,40l-2.83-1.7a37.39,37.39,0,0,0,4.35-17.4A38.8,38.8,0,0,0,23,3.3L25.9,1.64a41.43,41.43,0,0,1,4.81,19.29A40,40,0,0,1,25.89,40Z"/><rect class="cls-1" x="14.48" y="52.21" width="14.46" height="14.14"/><rect class="cls-1" x="18.02" y="45.33" width="7.39" height="10.93"/><rect class="cls-1" x="32.5" y="55.58" width="10.93" height="7.39"/><rect class="cls-1" y="55.58" width="10.93" height="7.39"/></g></g></svg>