<svg xmlns="http://www.w3.org/2000/svg" viewBox="0 0 63.31 53.45"><defs><style>.cls-1{fill:#45484a;}</style></defs><title>servers--softРесурс 2</title><g id="Слой_2" data-name="Слой 2"><g id="_1" data-name=" 1"><path class="cls-1" d="M63.22,23.89A5.31,5.31,0,0,0,61.71,21L53.42,5.32C51.94,2.67,51,0,48.1,0H15.21c-2.94,0-3.65,2.42-5.32,5.32L1.6,21A5.31,5.31,0,0,0,.09,23.89a4,4,0,0,0-.07.55c0,.13,0,.26,0,.39v23.3a5.32,5.32,0,0,0,5.32,5.32H58a5.32,5.32,0,0,0,5.32-5.32V24.83c0-.13,0-.26,0-.39A4,4,0,0,0,63.22,23.89ZM15.88,8.62c.3-.53.57-1,.8-1.46l.17-.31H46.48l.27.5c.21.41.43.82.67,1.24l5.76,10.92h-43Zm23.19,32.7H24.24a4.85,4.85,0,1,1,0-9.69H39.07a4.85,4.85,0,1,1,0,9.69Z"/></g></g></svg>