<svg xmlns="http://www.w3.org/2000/svg" viewBox="0 0 41.66 59.17"><defs><style>.cls-1{fill:#45484a;}</style></defs><title>servers--dataРесурс 6</title><g id="Слой_2" data-name="Слой 2"><g id="_1" data-name=" 1"><path class="cls-1" d="M34.38,0H7.28A7.28,7.28,0,0,0,0,7.28V51.9a7.28,7.28,0,0,0,7.28,7.28H34.38a7.28,7.28,0,0,0,7.28-7.28V7.28A7.28,7.28,0,0,0,34.38,0ZM20.83,48.29A4.26,4.26,0,1,1,25.09,44,4.26,4.26,0,0,1,20.83,48.29ZM30.3,25.61H11.36a2.84,2.84,0,0,1,0-5.68H30.3a2.84,2.84,0,0,1,0,5.68Zm0-11.42H11.36a2.84,2.84,0,0,1,0-5.68H30.3a2.84,2.84,0,0,1,0,5.68Z"/></g></g></svg>