<svg id="Слой_1" xmlns="http://www.w3.org/2000/svg" viewBox="0 0 206.13 521.55"><defs><style>.cls-1{fill:#fcd90d}.cls-2{fill:#e56915}.cls-3{fill:#ff3829}.cls-4{fill:#333}.cls-5{fill:#fff}.cls-6{fill:#26b1f7}</style></defs><path class="cls-1" d="M652.12 385.82s-40.73 17.59-45.26 74.68c-4 50.85 37.8 80.69 24.57 121.67 0 0 16-8.7 16.44-31.16s25.49-3.07 16.37 27.91-15.09 38.65 5.16 59.64c0 0-5.47-21.22 23.94-46 26.58-22.38 18.48-43.72 8.62-61.7s-.53-33.08 8.54-18.66 9.35 27.56 9.35 27.56 61.64-98.14-33.17-153.94z" transform="translate(-570 -117)"/><path class="cls-2" d="M660.41 385.82s-48.65 56.5-9.73 109.91c0 0 0-26.41 9.73-25.24s-9.29 27.59 25 58.7c0 0-15.9-21.08 2.65-59.38 8-16.61 5.08 11.07 18.77 19.87 0 0 2.42-23.86 3.42-35.62 3.73-43.85-28.64-68.23-28.64-68.23z" transform="translate(-570 -117)"/><path class="cls-3" d="M604.63 319.65c10.4 48.09 43.93 72 43.93 72h49s33.53-23.93 43.93-72z" transform="translate(-570 -117)"/><path class="cls-4" d="M740.45 303.93s26.65 26 26 26 17.08 12.3 6.15 33.48-26.65 53.3-26.65 53.3h-13.7s15.75-36.56 10.25-38.8-29.38-11.81-29.38-11.81 9.56-62.17 27.33-62.17zM605.68 303.93s-26.65 26-26 26-17.08 12.3-6.15 33.48 26.65 53.3 26.65 53.3h13.67s-15.72-36.52-10.25-38.76S633 366.1 633 366.1s-9.55-62.17-27.32-62.17z" transform="translate(-570 -117)"/><path class="cls-5" d="M697.57 391.67s47-33.34 47-100.74c0-110.16-71.56-173.94-71.56-173.94s-71.56 63.78-71.56 173.94c0 67.4 47 100.74 47 100.74z" transform="translate(-570 -117)"/><path class="cls-6" d="M673.06 117s-24.62 22-45 62.36h90c-20.38-40.36-45-62.36-45-62.36z" transform="translate(-570 -117)"/><circle class="cls-4" cx="103.06" cy="103.81" r="14.59"/><circle class="cls-4" cx="103.06" cy="156.12" r="14.59"/><path class="cls-6" d="M612.6 344.55c13.91 31.49 36 47.12 36 47.12h49s22.05-15.63 36-47.12z" transform="translate(-570 -117)"/><path class="cls-4" d="M676 416.67l15.34-92.31s-1-15.22-18.17-15.22H673c-17.19 0-18.17 15.22-18.17 15.22l15.8 92.31z" transform="translate(-570 -117)"/></svg>