<svg xmlns="http://www.w3.org/2000/svg" xmlns:xlink="http://www.w3.org/1999/xlink" viewBox="0 0 36 41.27"><defs><style>.cls-1{fill:url(#New_Gradient_Swatch_3)}.cls-2{fill:url(#New_Gradient_Swatch_4)}.cls-3{fill:url(#New_Gradient_Swatch_3-2)}</style><linearGradient id="New_Gradient_Swatch_3" x1="19.85" y1="14.06" x2="19.85" y2="34.11" gradientUnits="userSpaceOnUse"><stop offset="0" stop-color="#a4acb4"/><stop offset=".21" stop-color="#9ea5ad"/><stop offset=".52" stop-color="#8c929a"/><stop offset=".88" stop-color="#70747a"/><stop offset="1" stop-color="#65686e"/></linearGradient><linearGradient id="New_Gradient_Swatch_4" x1="16.87" y1="7.28" x2="16.87" y2="24.78" gradientUnits="userSpaceOnUse"><stop offset="0" stop-color="#ee7d00"/><stop offset=".24" stop-color="#ec7901"/><stop offset=".49" stop-color="#e56c03"/><stop offset=".75" stop-color="#da5707"/><stop offset="1" stop-color="#cb3b0c"/></linearGradient><linearGradient id="New_Gradient_Swatch_3-2" x1="18" x2="18" y2="41.27" xlink:href="#New_Gradient_Swatch_3"/></defs><g id="Слой_2"><g id="Symbol"><path class="cls-1" d="M17.85 34.11a18.61 18.61 0 0 1-7.22-6.17l18.45-13.88c-.19 3.72-.57 7.48-1.8 10.13a20.25 20.25 0 0 1-9.43 9.92z"/><path class="cls-2" d="M8.72 24.78c-.1-.19-.2-.39-.29-.58C6.92 21 6.7 16 6.54 12.38v-.74L17.9 7.28l9.34 3.57z"/><path class="cls-3" d="M18 41.26C9 38 4.55 30.83 2.67 26.83-.07 20.94 0 12 0 7.27v-.49L18 0l18 6.78v.55c0 4.76.07 13.63-2.67 19.49C31.45 30.83 27 38 18 41.26zM3.61 10c.18 5 .4 11.21 2.31 15.3 1.55 3.34 5.19 9.37 12 12.23 6.92-2.86 10.56-8.89 12.12-12.23C32 21.22 32.21 15 32.39 10v-.28l-.16-.11.13-.29L18 3.89 3.59 9.4z"/></g></g></svg>