<svg xmlns="http://www.w3.org/2000/svg" viewBox="0 0 46.81 41"><defs><style>.cls-1{fill:url(#New_Gradient_Swatch_3)}.cls-2{fill:url(#New_Gradient_Swatch_4)}</style><linearGradient id="New_Gradient_Swatch_3" x1="23.74" y1="14.99" x2="23.74" y2="41" gradientUnits="userSpaceOnUse"><stop offset="0" stop-color="#a4acb4"/><stop offset=".21" stop-color="#9ea5ad"/><stop offset=".52" stop-color="#8c929a"/><stop offset=".88" stop-color="#70747a"/><stop offset="1" stop-color="#65686e"/></linearGradient><linearGradient id="New_Gradient_Swatch_4" x1="22.44" x2="22.44" y2="23.65" gradientUnits="userSpaceOnUse"><stop offset="0" stop-color="#ee7d00"/><stop offset=".24" stop-color="#ec7901"/><stop offset=".49" stop-color="#e56c03"/><stop offset=".75" stop-color="#da5707"/><stop offset="1" stop-color="#cb3b0c"/></linearGradient></defs><g id="Слой_2"><g id="Symbol"><path class="cls-1" d="M10.12 33.47A2.43 2.43 0 0 0 7.7 31H3.08a2.43 2.43 0 0 0-2.42 2.47v5.12A2.43 2.43 0 0 0 3.08 41H7.7a2.42 2.42 0 0 0 2.42-2.42zm12-11a2.42 2.42 0 0 0-2.42-2.42h-4.6a2.42 2.42 0 0 0-2.42 2.42v16.11A2.42 2.42 0 0 0 15.1 41h4.62a2.42 2.42 0 0 0 2.42-2.42zm24.66-5A2.56 2.56 0 0 0 44.25 15h-4.34a2.56 2.56 0 0 0-2.55 2.55v20.9A2.56 2.56 0 0 0 39.91 41h4.35a2.56 2.56 0 0 0 2.55-2.55zm-12.64 10a2.43 2.43 0 0 0-2.42-2.42h-4.6a2.43 2.43 0 0 0-2.42 2.42v11.11A2.43 2.43 0 0 0 27.12 41h4.62a2.42 2.42 0 0 0 2.42-2.42z"/><path class="cls-2" d="M44.87 0l-9.2 1 3 3-10 12.2-10.31-9.54a1.87 1.87 0 0 0-2.52 0L.61 20.39a1.87 1.87 0 0 0 2.51 2.78l14-12.61 10.56 9.77a1.87 1.87 0 0 0 2.71-.19l11-13.45 2.52 2.52z"/></g></g></svg>