<svg xmlns="http://www.w3.org/2000/svg" viewBox="0 0 45.13 42"><defs><style>.cls-1{fill:url(#New_Gradient_Swatch_3)}.cls-2{fill:url(#New_Gradient_Swatch_4)}</style><linearGradient id="New_Gradient_Swatch_3" x1="20.32" x2="20.32" y2="35.99" gradientUnits="userSpaceOnUse"><stop offset="0" stop-color="#a4acb4"/><stop offset=".21" stop-color="#9ea5ad"/><stop offset=".52" stop-color="#8c929a"/><stop offset=".88" stop-color="#70747a"/><stop offset="1" stop-color="#65686e"/></linearGradient><linearGradient id="New_Gradient_Swatch_4" x1="26.35" y1="18.17" x2="26.35" y2="42" gradientUnits="userSpaceOnUse"><stop offset="0" stop-color="#ee7d00"/><stop offset=".24" stop-color="#ec7901"/><stop offset=".49" stop-color="#e56c03"/><stop offset=".75" stop-color="#da5707"/><stop offset="1" stop-color="#cb3b0c"/></linearGradient></defs><g id="Слой_2"><g id="Symbol"><path class="cls-1" d="M24.52 21.45h-3.17v8H29a17.33 17.33 0 0 0 1.67-3c.09-.6.17-1.21.22-1.83l-2.95-1.48zm3.31-15.66C26 2.35 23.7.34 21.35 0v10.15h8.21a25.8 25.8 0 0 0-1.73-4.36zm-6.48 6v8.06h5.48l1.41-.41 2.73-.8a37.14 37.14 0 0 0-1-6.84zm0 23.4a14.36 14.36 0 0 0 6.33-4.08h-6.33zM8.18 21.45H0a20.79 20.79 0 0 0 1.87 8h7.21a40.46 40.46 0 0 1-.9-8zm1-9.68H2a20.81 20.81 0 0 0-2 8.06h8.19a39.76 39.76 0 0 1 .97-8.06zm-6.5 19.32l.07.12a17.19 17.19 0 0 0 8.3 4.31 30 30 0 0 1-1.57-4.43zm7.52-11.26h9.13v-8.06h-8.1a37.43 37.43 0 0 0-1.03 8.06zM26.84.91a17.32 17.32 0 0 1 2.76 3.94 27.82 27.82 0 0 1 2.06 5.3h6.69A20.74 20.74 0 0 0 26.84.91zm12.38 10.86h-7.14A38.34 38.34 0 0 1 33 18l6.52-1.92 1.15-.34a20.57 20.57 0 0 0-1.45-3.97zm-25.8-6a24.78 24.78 0 0 0-1.75 4.36h7.66V.11c-2.15.56-4.26 2.51-5.91 5.68zm-1.79-.94A17.19 17.19 0 0 1 14.39.91a20.74 20.74 0 0 0-11.51 9.24h6.68a28.08 28.08 0 0 1 2.07-5.3zm1.79 30.91s0 .08.07.12c1 .09 1.77.1 2.37.1a19 19 0 0 0 3.48-.32v-4.55h-7.77a25.17 25.17 0 0 0 1.85 4.68zm-2.27-6.3h8.18v-8H10.2a38 38 0 0 0 .95 8.03z"/><path class="cls-2" d="M33.62 23.77l-4.81-2.42 12-3.18 4.34 11.76s-3.34-1.7-4.74-2.52C36.22 39.46 21.62 48 7.58 36.8c22.52 6.13 26.04-13.03 26.04-13.03z"/></g></g></svg>